<svg width="16" height="13" viewBox="0 0 16 13" fill="none" xmlns="http://www.w3.org/2000/svg">
<path d="M2.15625 4.55225H4.57776C4.75032 4.55225 4.89026 4.41231 4.89026 4.23975C4.89026 4.06718 4.75032 3.92725 4.57776 3.92725H2.15625C1.98369 3.92725 1.84375 4.06718 1.84375 4.23975C1.84375 4.41231 1.98366 4.55225 2.15625 4.55225Z" fill="#F98AAB"/>
<path d="M2.15625 6.7168H4.57776C4.75032 6.7168 4.89026 6.57686 4.89026 6.4043C4.89026 6.23173 4.75032 6.0918 4.57776 6.0918H2.15625C1.98369 6.0918 1.84375 6.23173 1.84375 6.4043C1.84375 6.57686 1.98366 6.7168 2.15625 6.7168Z" fill="#F98AAB"/>
<path d="M5.15876 11.955C5.09322 11.7978 4.90838 11.7207 4.75063 11.7859C4.59335 11.851 4.51666 12.037 4.58188 12.1941C4.64719 12.3514 4.83222 12.4282 4.98969 12.3631C5.14688 12.2982 5.22413 12.112 5.15876 11.955Z" fill="#F98AAB"/>
<path d="M15.9162 7.11889L12.1992 3.12888L13.3372 1.99347C13.5349 1.798 13.6438 1.53719 13.6438 1.2591C13.6438 0.984877 13.5376 0.726751 13.3449 0.532345C12.9464 0.129844 12.2904 0.124657 11.8826 0.520876C11.8816 0.521845 11.8806 0.522813 11.8796 0.523782L10.3193 2.08038H9.7363V0.880283C9.7363 0.70772 9.59636 0.567782 9.4238 0.567782H7.76902V0.312501C7.76902 0.139938 7.62908 0 7.45652 0C7.28395 0 7.14401 0.139938 7.14401 0.312501V0.567782H6.00242V0.312501C6.00242 0.139938 5.86248 0 5.68992 0C5.51735 0 5.37742 0.139938 5.37742 0.312501V0.567782H4.23579V0.312501C4.23579 0.139938 4.09585 0 3.92329 0C3.75073 0 3.61079 0.139938 3.61079 0.312501V0.567782H2.46913V0.312501C2.46913 0.139938 2.32919 0 2.15663 0C1.98407 0 1.84413 0.139938 1.84413 0.312501V0.567782H0.312501C0.139938 0.567782 0 0.70772 0 0.880283V12.0741C0 12.2466 0.139938 12.3866 0.312501 12.3866H3.50226C3.67482 12.3866 3.81476 12.2466 3.81476 12.0741C3.81476 11.9015 3.67482 11.7616 3.50226 11.7616H0.625001V1.19278H1.84413V1.47632C1.84413 1.64888 1.98407 1.78882 2.15663 1.78882C2.32919 1.78882 2.46913 1.64888 2.46913 1.47632V1.19278H3.61076V1.47632C3.61076 1.64888 3.75069 1.78882 3.92326 1.78882C4.09582 1.78882 4.23576 1.64888 4.23576 1.47632V1.19278H5.37739V1.47632C5.37739 1.64888 5.51732 1.78882 5.68989 1.78882C5.86245 1.78882 6.00239 1.64888 6.00239 1.47632V1.19278H7.14398V1.47632C7.14398 1.64888 7.28392 1.78882 7.45648 1.78882C7.62905 1.78882 7.76898 1.64888 7.76898 1.47632V1.19278H9.11127V2.08213C8.54995 2.10494 8.01389 2.34197 7.61589 2.73776L5.31617 5.03745C5.1772 5.17642 5.20301 5.41445 5.36742 5.52085C5.62636 5.68832 5.91661 5.7966 6.21989 5.84026C6.32098 5.85482 6.42351 5.8622 6.52686 5.8622C6.52736 5.8622 6.52783 5.86217 6.52829 5.86217L6.16957 6.22004C6.14354 6.24604 6.12289 6.27629 6.10761 6.30895L5.10514 7.8147C5.01479 7.95039 4.97792 8.1053 4.99142 8.25548H2.15663C1.98407 8.25548 1.84413 8.39542 1.84413 8.56798C1.84413 8.74055 1.98407 8.88049 2.15663 8.88049H5.67611C5.81136 8.88049 5.94776 8.83539 6.05914 8.7597L7.58286 7.72436C7.60089 7.71255 7.6183 7.69861 7.63355 7.68342L8.34027 6.97836L9.1113 7.7477V11.7616H6.25167C6.07911 11.7616 5.93917 11.9015 5.93917 12.0741C5.93917 12.2466 6.07911 12.3866 6.25167 12.3866H9.4238C9.59636 12.3866 9.7363 12.2466 9.7363 12.0741V8.35773C10.1314 8.68583 10.6239 8.86467 11.1441 8.86467H12.3908C12.6501 8.86467 12.9015 8.9722 13.079 9.15802L15.4599 11.6882C15.6493 11.8895 16 11.7508 16 11.4741V7.33189C16 7.25286 15.9701 7.17673 15.9162 7.11889ZM8.05789 3.17972C8.36058 2.87704 8.77508 2.70532 9.20314 2.70532H9.69274L7.7457 4.64767C7.56555 4.82063 7.39502 4.99013 7.1643 5.09707C6.82386 5.25485 6.42833 5.28004 6.07042 5.16713L8.05789 3.17972ZM12.3193 0.967971C12.4824 0.810908 12.7428 0.812564 12.9009 0.972221C12.9769 1.04891 13.0187 1.15078 13.0187 1.2591C13.0187 1.36897 12.9758 1.47194 12.8968 1.55007L9.63086 4.80838L9.47349 4.65098C9.32611 4.5036 9.14014 4.39535 8.9393 4.33982L12.3193 0.967971ZM5.70786 8.24277C5.68111 8.26095 5.65617 8.25886 5.63298 8.23586C5.59842 8.20161 5.61595 8.17527 5.62539 8.16108L6.44201 6.93448L6.92442 7.41614L5.70786 8.24277ZM7.41311 7.02051L6.83333 6.44073L7.42877 5.8466C7.48498 6.05007 7.59636 6.23582 7.74536 6.38479L7.89783 6.53695L7.41311 7.02051ZM15.375 10.686L13.5326 8.72808C13.2362 8.4177 12.82 8.2397 12.3908 8.2397H11.1441C10.7219 8.2397 10.3249 8.07567 10.0263 7.77786L8.18617 5.94173C7.92052 5.74251 7.97986 5.30085 8.18627 5.09123C8.41817 4.86554 8.80471 4.86601 9.03152 5.09288L10.5266 6.58795C10.6469 6.70817 10.8482 6.7082 10.9686 6.58795C11.0906 6.46592 11.0906 6.26804 10.9686 6.14598L10.0728 5.25026L11.7565 3.57057L15.375 7.45492V10.686Z" fill="#F98AAB"/>
</svg>
